<svg xmlns="http://www.w3.org/2000/svg" xmlns:xlink="http://www.w3.org/1999/xlink" id="Layer_1" x="0" y="0" version="1.1" viewBox="0 0 800 800" style="enable-background:new 0 0 800 800" xml:space="preserve"><style type="text/css">.st0,.st1{fill:#212121}.st1{display:none}.st2{fill:none;stroke:#212121;stroke-width:50;stroke-linecap:round;stroke-miterlimit:10}</style><title>ic_fluent_font_increase_24_regular</title><desc>Created with Sketch.</desc><g><g id="ic_fluent_font_increase_24_regular"><path d="M602.4,599.1l-178.9-450l-1.7-3.5l-2.1-3c-11.3-14.2-35.3-12-42.7,6.5l-179.4,450l-1,3.2 c-3,11.9,3.3,24.5,15,29.2l3.2,1c12,3,24.6-3.3,29.3-15l53.5-134.3h205l53.4,134.3l1.5,3.1c6,10.7,19.2,15.6,31,10.9 C601.2,626.5,607.5,611.9,602.4,599.1z M317.5,433.3l82.7-207.4l82.5,207.4H317.5z" class="st0"/><path d="M589.4,102.3c6.7-3.1,14.5-3.1,21.2,0l3.3,1.8l75,49.9l2.9,2.3c9.1,8.2,11,21.9,4.1,32.4 c-6.9,10.5-20.4,14-31.4,8.8l-3.2-1.8L600,155l-61.2,40.7l-3.2,1.8c-11,5.2-24.5,1.6-31.4-8.8c-6.9-10.5-5-24.2,4.1-32.4l2.9-2.3 l75-49.9L589.4,102.3z" class="st1"/></g></g><line x1="531.5" x2="668.6" y1="151.3" y2="151.3" class="st2"/><line x1="600" x2="600" y1="219.8" y2="82.8" class="st2"/></svg>